<svg xmlns="http://www.w3.org/2000/svg" xmlns:xlink="http://www.w3.org/1999/xlink" version="1.1" viewBox="0 0 200 200">
  <desc>Euro Moot Logo</desc>
  <defs>
    <g id="star">
      <g id="c">
        <path id="t" d="M0,0v1h0.5z" transform="translate(0,-1)rotate(18)"/>
        <use xlink:href="#t" transform="scale(-1,1)"/>
      </g>
      <g id="a">
        <use xlink:href="#c" transform="rotate(72)"/>
        <use xlink:href="#c" transform="rotate(144)"/>
      </g>
      <use xlink:href="#a" transform="scale(-1,1)"/>
    </g>
  </defs>
  <rect fill="#fff" width="200" height="200"/>
  <g>
    <g id="stars" fill="#000" transform="translate(100,100)scale(5)rotate(-15)">
      <use id="topstar" xlink:href="#star" y="-18"/>
      <use id="bottomstar" xlink:href="#star" y="18"/>
      <g id="left">
        <use xlink:href="#star" x="-18"/>
        <g id="bottomleft">
          <use xlink:href="#star" transform="rotate(80)translate(0,18)rotate(-80)"/>
          <use xlink:href="#star" transform="rotate(70)translate(0,18)rotate(-70)"/>
          <use xlink:href="#star" transform="rotate(60)translate(0,18)rotate(-60)"/>
          <use xlink:href="#star" transform="rotate(50)translate(0,18)rotate(-50)"/>
          <use xlink:href="#star" transform="rotate(40)translate(0,18)rotate(-40)"/>
          <use xlink:href="#star" transform="rotate(30)translate(0,18)rotate(-30)"/>
          <use xlink:href="#star" transform="rotate(20)translate(0,18)rotate(-20)"/>
          <use xlink:href="#star" transform="rotate(10)translate(0,18)rotate(-10)"/>
        </g>
        <use id="topleft" xlink:href="#bottomleft" transform="scale(1, -1)"/>
      </g>
      <use id="right" xlink:href="#left" transform="scale(-1, 1)"/>
    </g>

    <circle cx="100" cy="100" r="80" fill="none" stroke="#000" stroke-width="1.5" />
    <circle cx="100" cy="100" r="50" fill="none" stroke="#000" stroke-width="1.5"/>
  </g>
  <rect x="-75" y="-18" width="150" height="36" fill="#fff" transform="translate(100,103)rotate(-15)"/>
  <g transform="translate(100, 100)rotate(-15)" fill="#000">

    <use xlink:href="#star" transform="translate(0, -30)scale(12)"/>
    <text text-anchor="middle" font-family="Helvetica Neue" font-size="27" font-weight="500" transform="translate(0, 12)">EUROMOOT</text>
    <text text-anchor="middle" font-family="Helvetica Neue" font-size="24" font-weight="500" transform="translate(0, 35)">2018</text>


    <path id="toptext" d="M -60 0 A 60 60 180 0 1 60 0" fill="none"/>
    <path id="bottomtext" d="M -70 0 A 70 70 180 0 0 70 0" fill="none"/>
    <text font-size="15" font-family="Helvetica Neue" font-weight="500" transform="rotate(16)">
      <textPath xlink:href="#toptext">
        76th NZ ROVER MOOT
      </textPath>
    </text>
    <text font-size="15" font-family="Helvetica Neue" font-weight="500" transform="rotate(-17)">
      <textPath xlink:href="#bottomtext">
        Ashburton, New Zealand
      </textPath>
    </text>
  </g>
</svg>
