<svg xmlns="http://www.w3.org/2000/svg" xmlns:xlink="http://www.w3.org/1999/xlink" version="1.1" viewBox="0 0 200 200">
  <desc>Euro Moot Logo</desc>
  <defs>
    <style type="text/css">
        .background {
          fill: #008000;
        }

        #stars {
          fill: #fc0;
        }

        .text {
          fill: #fc0;
          font-family: Kingthings Foundation;
          font-weight: 400;
        }

        .title {
          font-weight: 500;
        }

        .fdl-path {
          fill: #039;
          stroke: #fc0;
          stroke-width: 5;
        }

        .fdl-line {
          stroke-linecap: round;
          stroke-linejoin: round;
        }

        .fdl-star {
          fill:#fc0;
        }

        .australia > path {
          fill: transparent;
          stroke: #fc0;
          stroke-width: 2;
          stroke-linecap: butt;
          stroke-linejoin: miter;
          stroke-opacity: 1;
        }
    </style>
    <g id="star">
      <g id="c">
        <path id="t" d="M0,0v1h0.5z" transform="translate(0,-1)rotate(18)"/>
        <use xlink:href="#t" transform="scale(-1,1)"/>
      </g>
      <g id="a">
        <use xlink:href="#c" transform="rotate(72)"/>
        <use xlink:href="#c" transform="rotate(144)"/>
      </g>
      <use xlink:href="#a" transform="scale(-1,1)"/>
    </g>
  </defs>
  <rect class="background" width="200" height="200"/>
  <g>
    <g id="stars" transform="translate(100,100)scale(6)rotate(-15)">
      <use id="topstar" xlink:href="#star" y="-15"/>
      <use id="bottomstar" xlink:href="#star" y="15"/>
      <g id="left">
        <use xlink:href="#star" transform="rotate(165)translate(0,15)rotate(-165)"/>
        <use xlink:href="#star" transform="rotate(150)translate(0,15)rotate(-150)"/>
        <use xlink:href="#star" transform="rotate(135)translate(0,15)rotate(-135)"/>
        <use xlink:href="#star" transform="rotate(120)translate(0,15)rotate(-120)"/>
        <use xlink:href="#star" transform="rotate(105)translate(0,15)rotate(-105)"/>
        <use xlink:href="#star" transform="rotate(90)translate(0,15)rotate(-90)"/>
        <use xlink:href="#star" transform="rotate(75)translate(0,15)rotate(-75)"/>
        <use xlink:href="#star" transform="rotate(60)translate(0,15)rotate(-60)"/>
        <use xlink:href="#star" transform="rotate(45)translate(0,15)rotate(-45)"/>
        <use xlink:href="#star" transform="rotate(30)translate(0,15)rotate(-30)"/>
        <use xlink:href="#star" transform="rotate(15)translate(0,15)rotate(-15)"/>
      </g>
      <use id="right" xlink:href="#left" transform="scale(-1, 1)"/>
    </g>

    <circle cx="100" cy="100" r="80" fill="none" stroke="#fc0" stroke-width="1" />
    <!-- <circle cx="100" cy="100" r="50" fill="none" stroke="#fc0" stroke-width="1.5"/> -->
  </g>
  <rect x="-75" y="-18" width="150" height="36" class="background" transform="translate(100,103)rotate(-15)"/>
  <g transform="translate(100, 100)rotate(-15)">
    <!-- <g transform="translate(-23.2,-56)scale(0.2,0.2)">
    	<path
       d="M 35.09619,158.58594 C 35.09619,158.58594 1,147.98535 1,117.32715 C 1,86.66992 22.77539,79.79297 30.51172,79.21973 C 38.24756,78.64746 78.07373,81.79883 87.81592,136.23731 C 97.55713,190.67676 87.81592,208.72754 70.91065,209.30079 C 63.54444,209.55177 54.00635,207.58106 54.29297,184.9463 C 54.29297,184.9463 82.75147,196.34474 80.65283,163.45704 C 80.09326,154.68946 76.49853,137.66993 57.73095,136.81056 C 57.73096,136.81055 40.82617,134.80469 35.09619,158.58594 z"
       class="fdl-path" />
    	<path
       d="M 197.41357,158.58594 C 197.41357,158.58594 231.50927,147.98535 231.50927,117.32715 C 231.50927,86.66992 209.73388,79.79297 201.99755,79.21973 C 194.26122,78.64746 154.43505,81.79883 144.69384,136.23731 C 134.95165,190.67676 144.69384,208.72754 161.59814,209.30079 C 168.96728,209.55177 178.50341,207.58106 178.2163,184.9463 C 178.2163,184.9463 149.75732,196.34474 151.85692,163.45704 C 152.41649,154.68946 156.01122,137.66993 174.77782,136.81056 C 174.77783,136.81055 191.68311,134.80469 197.41357,158.58594 z"
       class="fdl-path"/>
    	<g
       id="g24022">
    		<path
       d="M 129.57959,164.31934 C 135.17822,142.09375 141.25732,118.9961 144.6626,109.30469 C 152.11182,88.10254 177.12451,46.27002 116.95459,1 C 56.78564,46.27051 81.79932,88.10254 89.24854,109.30469 C 92.51417,118.59864 98.23975,140.22461 103.64307,161.58594 C 108.85401,111.5918 116.95459,38.05615 116.95459,38.05615 C 116.95459,38.05615 124.42627,114.32129 129.57959,164.31934 z"
       class="fdl-path fdl-line"/>
    		<path
       d="M 129.93311,167.75488 C 129.8169,166.6289 129.69776,165.47168 129.57959,164.31933 C 122.92822,190.71972 116.95459,215.89062 116.95459,215.89062 C 116.95459,215.89062 110.56396,188.95507 103.64307,161.58593 C 103.42432,163.68066 103.2085,165.74902 103.00147,167.75488 C 97.84424,217.60937 84.09131,226.20508 84.09131,226.20508 C 120.19287,247.98047 148.84326,224.77246 148.84326,224.77246 C 148.84326,224.77246 135.09033,217.60938 129.93311,167.75488 z"
       class="fdl-path fdl-line"/>
    		<path
       d="M 129.57959,164.31934 C 124.42627,114.32129 116.95459,38.05616 116.95459,38.05616 C 116.95459,38.05616 108.854,111.5918 103.64307,161.58595 C 110.56397,188.95509 116.95459,215.89064 116.95459,215.89064 C 116.95459,215.89064 122.92822,190.71973 129.57959,164.31934 z"
       class="fdl-path fdl-line"/>
    	</g>
    	<path
       d="M 170.24756,164.98633 C 170.24756,168.78906 167.57959,171.87598 164.29151,171.87598 L 69.61865,171.87598 C 66.32861,171.87598 63.66162,168.78907 63.66162,164.98633 L 63.66162,164.98633 C 63.66162,161.18067 66.32861,158.0957 69.61865,158.0957 L 164.2915,158.0957 C 167.57959,158.0957 170.24756,161.18066 170.24756,164.98633 L 170.24756,164.98633 z"
       class="fdl-path fdl-line"/>
    <path class="fdl-star"
       style="opacity:1;fill-opacity:1;stroke:none;stroke-width:0.43140084;stroke-linecap:butt;stroke-linejoin:round;marker:none;stroke-miterlimit:4;stroke-dasharray:none;stroke-dashoffset:0;stroke-opacity:1;visibility:visible;display:inline;overflow:visible;enable-background:accumulate"
       d="M 31.276085,84.270072 L 34.12134,93.088572 L 43.387465,93.069505 L 35.879804,98.500569 L 38.761329,107.30729 L 31.276085,101.84537 L 23.79084,107.30728 L 26.672365,98.500569 L 19.164705,93.069504 L 28.43083,93.088572 L 31.276085,84.270072 z"
       transform="matrix(1.1589322,0,0,1.1590976,-3.1155722,-0.8234322)" />
     <path class="fdl-star"
       transform="matrix(1.1589322,0,0,1.1590976,163.09647,-0.8234322)"
       d="M 31.276085,84.270072 L 34.12134,93.088572 L 43.387465,93.069505 L 35.879804,98.500569 L 38.761329,107.30729 L 31.276085,101.84537 L 23.79084,107.30728 L 26.672365,98.500569 L 19.164705,93.069504 L 28.43083,93.088572 L 31.276085,84.270072 z"
       style="opacity:1;fill-opacity:1;stroke:none;stroke-width:0.43140084;stroke-linecap:butt;stroke-linejoin:round;marker:none;stroke-miterlimit:4;stroke-dasharray:none;stroke-dashoffset:0;stroke-opacity:1;visibility:visible;display:inline;overflow:visible;enable-background:accumulate"/>
     </g> -->

     <g class="australia" transform="translate(-60, -56)scale(0.12,0.12)">
       <path
          d="m 331.22413,136.1113 3.3853,-1.60356 3.20712,-1.42539 3.02894,-0.89086 3.02895,-0.53452 4.27616,0 3.56346,1.06904 4.27616,2.49442 4.45433,4.09799 3.56347,4.27616 2.49442,4.81068 2.13808,4.45433 3.91982,5.16701 4.09798,2.13808 6.94876,1.60356 8.73049,-0.53452 8.0178,-0.53452 4.27616,0 2.49442,-0.89086 0.89087,-0.7127 0.35635,-4.09797 -0.53452,-3.02895 -1.06904,-2.13808 c 0,0 -0.53452,-1.06904 -1.24721,-1.06904 -0.7127,0 -2.85078,-0.53452 -2.85078,-0.53452 l -1.78173,-0.71269 -0.71269,-2.13808 0.71269,-6.05789 1.42539,-3.91981 2.49442,-4.63251 3.74164,-4.6325 2.49443,-3.20712 0.71269,-1.95992 1.60356,-0.89087 3.74164,-0.35634 2.49442,0.17817 1.60356,0 0.89087,-1.24721 -0.89087,-2.49443 -1.60356,-3.56345 -0.17817,-4.09799 0.71269,-3.74164 1.60356,-3.56347 3.56347,-3.563466 5.3452,-3.207113 7.48328,-1.78174 6.23606,-0.89086 7.30511,-0.7127 5.16702,-0.53452 7.12693,-0.71269 6.23607,-1.06904 4.45433,-2.6726 2.85077,-3.741639 1.06904,-3.563466 -0.35634,-4.454332 -1.24722,-2.494426 -2.13808,-2.672599 -2.49442,-2.138081 -1.95991,-0.712693 -3.02894,0.178174 -2.13808,-0.178174 -1.24722,-1.069039 0.17818,-2.316253 1.78173,-2.13808 1.95991,-1.603559 2.49442,-0.53452 2.6726,0.53452 4.98885,2.672599 5.70155,4.454332 3.56346,1.959907 2.31626,2.494426 1.06904,1.06904 1.42538,0 0.89087,-2.316253 -0.17817,-3.028946 -0.35635,-2.494426 1.24721,-0.53452 1.42539,1.069039 1.42539,2.850773 1.24721,2.316254 0.35635,1.425386 1.60355,1.06904 3.3853,0 2.6726,1.06904 5.16702,2.316252 4.09799,2.13808 4.09798,0.53452 17.28281,0.178173 1.24722,0.178173 0.89086,1.959906 1.06904,2.850773 2.31625,2.138079 3.02895,1.247213 4.45433,0.178174 5.52337,0.178173 3.02895,0.356347 2.49443,0.356346 1.24721,-1.06904 0.35635,-1.247213 2.31625,-0.712693 2.49442,0.178174 1.95991,0.178173 0.53452,1.06904 0.53452,2.850772 0.71269,2.316254 2.13808,0.89087 1.95991,0.35634 1.95991,-0.17817 1.42538,-0.53452 1.06904,-2.13808 0.71269,-2.13808 1.42539,-1.06904 2.6726,-1.06904 2.6726,-0.178173 2.49443,0.712693 2.13808,1.06904 1.24721,1.60356 0.17817,3.02895 -0.71269,5.345193 -0.53452,5.879716 -1.06904,5.70155 0,1.60356 -0.71269,1.06904 -0.89087,0.89087 -3.74164,0.35635 -7.83962,-0.35635 -4.63251,0 -2.13808,0.35635 -1.06904,1.42538 -1.78173,8.90867 -1.78173,8.73049 -3.20712,6.23606 -5.3452,7.12693 -4.45434,4.63251 -2.85077,2.31625 -1.42538,1.24722 0.35634,1.24721 4.09799,-0.71269 5.16702,0.71269 6.41424,1.78173 7.83963,3.38528 16.03559,9.79954 8.37415,5.70154 6.05789,3.74164 7.83962,3.38529 7.30511,2.6726 6.05789,3.20712 4.09799,3.38529 5.34519,4.98886 5.70155,4.27615 3.74164,2.85078 3.74164,1.78173 1.9599,1.06904 0.7127,3.02895 2.85077,5.70154 2.31625,2.85077 4.63251,3.02895 4.98885,1.24721 10.51222,0 8.37415,-0.17817 4.45433,-0.17817 1.06904,-0.53452 1.06904,-3.56347 1.24721,-6.59241 1.95991,-7.83963 3.74164,-8.37414 3.56346,-8.55232 2.49443,-7.66145 1.06904,-7.83962 0.71269,-10.51223 0.17818,-11.9376 3.38529,-23.69705 0.89087,-7.30511 0.35634,-5.52336 0,-3.56347 1.06904,-1.78173 0.89087,-0.7127 2.31625,-0.35634 1.60356,-0.7127 0.35635,-1.95991 0.89086,-9.443179 1.42539,-8.552319 2.85077,-7.483279 2.31626,-5.879718 2.85077,-5.87972 1.24721,-3.385292 1.06904,-2.494426 0.71269,-1.425386 1.95991,-1.06904 3.91981,0.178173 3.02895,1.959906 2.6726,3.741639 2.13808,5.701547 0.89086,5.701545 0.35635,4.097985 0,4.454333 0.35635,1.603559 0.89086,0.53452 3.20712,-0.356346 2.85078,-0.178174 1.06904,0.178174 1.42538,0.178173 0.35635,1.603559 -0.89087,2.316253 -0.71269,2.138084 0,5.16702 0.35634,3.741639 1.95991,5.3452 2.6726,6.41424 3.20712,7.48327 1.95991,5.87973 1.24721,6.23606 0.35635,6.94876 0,5.87972 0.17817,3.02895 0.53452,1.9599 1.9599,0.53452 4.27616,0 3.56347,-0.89086 c 0,0 2.49443,-0.35635 3.20712,-0.35635 0.71269,0 4.27616,-0.17817 4.27616,-0.17817 l 3.38529,0.89086 2.6726,2.13808 2.85077,3.91982 3.20712,5.70153 3.38529,5.52337 1.42539,3.20712 0.89087,4.98885 0.17817,7.30511 0.89087,9.62136 0.71269,5.16702 0.53452,3.74164 2.13808,4.98885 2.31625,2.31626 1.95991,2.31625 3.74164,1.24721 1.42538,1.78173 1.24722,6.0579 0.71269,7.66145 0.17817,14.43203 0.53452,8.55232 1.78174,8.19597 3.74163,6.23607 4.81068,6.23606 6.05789,5.3452 4.09799,2.49443 3.38529,1.06904 2.6726,0 1.06904,0.17817 0.89087,1.60356 0.89086,4.98885 1.60356,1.95991 3.56347,2.13808 5.87972,3.38529 4.45433,2.85077 3.91981,4.27616 3.74164,5.3452 3.02895,7.83963 4.81068,10.33405 4.81068,9.08683 3.38529,7.83963 3.56346,8.90866 1.95991,8.55232 -0.35635,2.6726 0.53452,1.42539 1.06904,-0.53452 0.35635,-3.02895 0.71269,-2.49442 1.42539,-0.53452 2.49443,0.71269 1.24721,1.42538 1.60356,4.45434 1.60356,4.09798 1.24721,3.20712 0.71269,1.78173 1.78174,0.35635 1.06904,-3.20712 -0.53452,-5.70154 0.35634,-4.27616 0.53452,-1.60356 2.31626,-0.53452 1.9599,0 1.06904,1.06904 0.53452,3.74164 0.17817,12.11578 0.7127,7.48328 1.24721,7.66145 2.13808,6.77059 2.6726,4.27615 3.91981,4.27616 3.20712,4.09799 4.45433,5.87972 6.23607,10.15587 5.3452,8.19598 4.09798,4.98885 4.27616,3.91981 2.13808,1.06904 2.31625,0.17817 c 0,0 1.60356,-0.17817 1.60356,-1.06904 0,-0.89086 0.17818,-2.6726 0.17818,-2.6726 0,0 0.17817,-2.85077 0.89086,-3.20711 0.7127,-0.35635 1.78174,-1.78174 1.78174,-1.78174 l 3.02894,-1.06904 3.38529,0 1.78174,1.06904 0.53452,1.24722 -1.06904,2.85077 -1.24722,3.56346 -0.53452,3.56347 -1.78173,4.81068 -3.38529,2.31625 -2.31625,0.17817 -1.60356,0.17818 c 0,0 -1.24722,-0.17818 -1.42539,0.71269 -0.17817,0.89087 -1.24721,4.27616 -1.24721,4.27616 l 0.71269,6.94876 0.71269,15.14473 -0.35634,14.78838 0.89086,11.75944 0.7127,5.87972 -0.7127,10.51222 -1.24721,9.62136 -3.02894,9.62136 -3.74164,11.22491 -3.91982,8.19597 -2.6726,5.87972 -1.60356,6.23607 -1.60355,12.11578 -1.06904,9.62136 -1.42539,7.12693 -3.20712,6.94876 -7.3051,6.23606 -8.0178,5.52338 -5.3452,3.91981 -5.16703,4.81068 -3.02894,4.09798 -2.49443,4.63251 -2.49442,6.23606 -2.31626,7.12693 -3.91981,8.0178 -6.23607,8.37415 -3.38529,4.6325 -3.56346,4.98885 -2.85078,6.94876 -5.52337,6.94876 -6.05789,5.3452 -4.27616,4.63251 -2.13808,3.56346 -0.17817,6.23607 0.17817,6.59241 -1.42538,8.19597 -1.95991,6.77058 -2.13808,4.27616 -4.45433,4.81068 -7.12693,2.31625 -10.33405,0.17818 -13.54117,0.53452 -9.44319,1.60356 -7.3051,2.13808 -7.83963,4.45433 -3.91981,2.31625 -2.85077,0.35635 -2.49443,0.71269 -1.24721,2.13808 -0.53452,4.98885 -0.17818,1.78174 -1.42538,0.89086 -3.38529,0 -6.0579,-2.13808 -5.52337,-1.06904 c 0,0 -1.60356,-0.71269 -1.60356,-1.42538 0,-0.7127 0,-3.91982 0,-3.91982 l -1.60356,-4.45433 -2.31625,-2.31625 -1.78173,-0.89087 -1.06904,1.60356 0.17817,4.63251 0.17817,3.91981 -0.71269,1.06904 -1.95991,-0.53452 -3.20711,-2.49443 -3.3853,-2.67259 -2.13808,-2.31626 0.53452,-0.71269 2.6726,0 0.89087,-1.95991 0.35635,-3.91981 -1.06904,-2.85077 -3.02895,-4.63251 -1.06904,-0.53452 -1.95991,1.78174 -0.17817,6.05789 0.17817,4.81068 -1.9599,3.74164 -3.56347,2.49442 -1.9599,1.60356 -12.47213,0 -9.44319,-0.53452 -2.6726,-1.60356 c 0,0 -3.02894,-3.91981 -3.74164,-4.45433 -0.71269,-0.53452 -3.56346,-1.06904 -4.27616,-1.60356 -0.71269,-0.53452 -3.38529,-0.35635 -4.27615,-0.71269 -0.89087,-0.35635 -6.94876,-0.35635 -6.94876,-0.35635 l -3.3853,-0.17817 -6.94875,-2.85078 -5.52338,-3.20712 -5.34519,-2.13807 -5.52338,-0.53452 c 0,0 -4.98885,0.35634 -5.87971,-0.17818 -0.89087,-0.53452 -5.3452,-2.31625 -5.3452,-2.31625 l -5.70155,-6.59241 -1.60356,-4.98885 0.35635,-7.66146 0.17817,-9.62135 0.35635,-9.44319 -2.13808,-6.59241 c 0,0 -2.85077,-3.02895 -3.56347,-3.56347 -0.71269,-0.53451 -4.09798,-2.13807 -4.09798,-2.13807 l -4.63251,-1.24722 -2.6726,-2.13808 -0.17817,-1.60356 0,-2.6726 0.35635,-2.13808 -0.7127,-0.71269 -1.60356,0.71269 -5.52337,3.3853 -3.02895,1.78173 c 0,0 -2.13807,1.06904 -3.20711,1.06904 -1.06904,0 -3.91982,0.17817 -4.63251,0.17817 -0.71269,0 -3.56347,-0.35634 -3.56347,-0.35634 l -0.71269,-1.24722 -0.17817,-3.56346 0.17817,-4.09799 0.35635,-1.9599 2.6726,-1.78174 2.31625,-2.6726 1.06904,-3.74164 -0.35635,-5.70154 -0.53452,-5.3452 -0.17817,-4.98885 -0.53452,-3.02895 -1.24721,-1.42538 -2.49443,-0.7127 -2.31625,0.89087 -1.24721,0.53452 -0.89087,2.13808 0.35635,5.16702 -0.7127,4.45434 -0.71269,3.91981 -1.60356,2.6726 -1.95991,2.49442 -3.38529,1.78174 -3.20712,0.53452 -6.59241,0.35634 -3.38529,-0.17817 -0.89087,-1.42539 0.53452,-2.49442 3.02895,-2.85077 3.91981,-3.91982 4.45433,-3.56346 4.81068,-5.16703 2.85077,-3.91981 2.6726,-5.70155 1.95991,-7.48327 0.53452,-6.41424 -0.35635,-6.94876 0.53452,-5.87972 -0.35635,-4.27616 -0.35634,-3.02894 -1.42539,-0.53452 -1.24721,2.31625 -3.20712,6.05789 -4.63251,6.41424 -8.90866,10.6904 -3.74164,4.6325 -6.41424,5.87972 -4.27616,3.38529 -2.49442,1.78174 -1.78174,2.31625 -1.78173,2.49442 -0.53452,3.02895 0.35635,4.09799 0,3.20712 -1.42539,1.24721 -3.91981,0.17817 -4.27616,-3.02894 -4.45433,-4.98886 -3.56347,-8.01779 -2.31625,-9.26502 -1.95991,-7.83962 -2.85077,-5.70155 -5.52337,-5.70154 -4.09799,-1.60356 -4.27616,-0.17817 -1.78173,-1.06904 -1.06904,-2.49443 1.24722,-2.85077 c 0,0 1.06903,-0.71269 2.13807,-1.60356 1.06904,-0.89087 2.6726,-1.24721 2.6726,-1.24721 l 1.42539,-0.7127 0.71269,-1.78173 0.17818,-2.6726 -1.24722,-1.06904 -3.38529,-0.71269 -2.49442,0.17817 -2.31626,-0.53452 c 0,0 -1.06904,-1.24721 -1.24721,-1.95991 -0.17817,-0.71269 0,-4.09798 0,-4.09798 l -0.35635,-1.95991 -3.56346,-0.71269 -6.23607,-0.17817 -6.05789,-2.13808 -6.77058,-0.89087 -9.62136,0.35635 -5.87972,0 -3.38529,-1.06904 -2.13808,-1.95991 -0.7127,-2.31625 0.17818,-3.38529 c 0,0 0.71269,-1.42539 0,-2.13808 -0.7127,-0.7127 -1.95991,-2.13808 -1.95991,-2.13808 l -5.16702,-2.31626 -6.0579,-1.42538 -5.34519,0.17817 -6.59242,0.35635 -4.27616,1.06904 -9.26501,2.49442 -14.78838,5.87972 -8.37414,4.09799 -8.55232,3.91981 -8.73049,2.6726 -6.77059,1.06904 -9.44318,0 -4.98885,0.35635 -3.02895,1.60356 -3.02895,3.38529 c 0,0 -1.24721,2.31625 -2.13808,2.31625 -0.89086,0 -8.73049,1.95991 -8.73049,1.95991 l -12.11578,1.9599 -9.79953,3.56347 -10.6904,4.27616 -8.90866,5.16702 -6.23607,3.74164 -3.38529,4.27616 -2.49443,4.98885 -2.49442,4.63251 -1.24722,2.6726 -1.06904,1.60356 -4.6325,1.60356 -8.90867,2.31625 c 0,0 -9.62135,0.71269 -11.22491,0.89087 -1.60356,0.17817 -12.29396,0.17817 -12.29396,0.17817 l -7.83962,-0.71269 -9.26502,0.53452 -6.94875,0.89086 -9.26501,3.56347 -12.65031,5.70154 -6.77058,5.70155 -4.63251,3.38529 -2.85077,2.85077 -3.20712,4.81068 -3.91981,5.16703 -3.74164,2.6726 -3.38529,1.42538 -6.77059,0.17818 -18.35185,0.17817 -6.23606,-0.17817 -8.0178,-1.78174 -5.52337,-3.91981 -6.05789,-4.6325 -3.02895,-1.95991 -6.94875,-0.53452 -5.87972,-3.02895 -2.6726,-2.85077 -0.71269,-2.13808 0.17817,-6.05789 0.17818,-3.02895 c 0,0 -0.53452,-1.42538 0.17817,-2.13807 0.71269,-0.7127 4.09799,-2.49443 4.09799,-2.49443 0,0 1.9599,-0.35635 2.67259,-0.89087 0.7127,-0.53452 3.20712,-1.9599 3.20712,-1.9599 l 1.95991,-2.49443 0,-6.94876 -0.17817,-4.6325 -1.24722,-2.6726 -1.24721,-3.02895 0.17817,-5.3452 0.17818,-9.26501 -0.35635,-7.83962 0,-1.60356 -1.24721,-2.6726 -5.3452,-6.05789 -4.81068,-4.63251 -3.91981,-3.56346 -3.02895,-3.20712 -1.06904,-2.49443 -1.24721,-3.74164 c 0,0 -0.35635,-4.27616 -0.89087,-5.16702 -0.53452,-0.89087 -2.13808,-5.16703 -2.13808,-5.16703 0,0 -2.13808,-3.02895 -2.85075,-3.74164 -0.7127,-0.71269 -4.6325,-5.16702 -4.6325,-5.16702 l -3.029,-3.20712 -1.2472,-1.95991 c 0,0 -1.069,-2.31625 -0.8909,-3.02895 0.1782,-0.71269 0.5346,-4.98885 0.5346,-4.98885 l -0.5346,-3.74164 -1.6035,-1.60356 -3.9198,-1.78173 -4.2762,-2.85077 -2.6726,-2.31625 -2.4944,-2.85078 -1.6036,-3.56346 -0.5345,-4.81068 -0.1782,-4.09799 0.7127,-2.6726 -0.5345,-1.24721 -3.2071,-0.17817 c 0,0 -2.1381,-0.53452 -3.029,-0.89087 -0.8908,-0.35635 -2.3162,-1.24721 -2.3162,-1.24721 l -1.9599,-3.02895 0,-3.91981 0,-2.85077 -0.8909,-2.31626 -1.7817,-2.13808 -5.7016,-4.09798 -6.5924,-6.94876 -3.7416,-4.45433 -2.1381,-2.31625 -0.712701,-1.95991 -0.1782,-2.13808 1.603601,-1.60356 3.029,-0.17817 3.3852,1.42538 3.2072,4.27616 4.8106,4.45433 4.098,3.02895 3.029,0.89087 2.4944,-0.35635 0.8909,-1.60356 0.1781,-3.91981 -0.1781,-5.70155 c 0,0 -0.1782,-2.49442 -0.5346,-3.20712 -0.3563,-0.71269 0,-0.71269 -1.7817,-1.78173 -1.7817,-1.06904 -3.5635,-1.42539 -3.5635,-1.42539 l -2.6726,0.17818 -1.6035,-1.24722 0.3563,-12.29395 -0.1781,-1.06904 -1.9599,-1.42539 -2.4945,-0.35634 -4.2761,-2.85078 -3.5635,-5.52337 -2.4944,-5.87972 -0.8909,-3.20712 1.4254,-3.38529 2.3163,-4.6325 0.5345,-4.63251 0.5345,-9.26501 -0.1782,-18.35185 0,-8.19597 0.5345,-5.87972 0.3564,-2.6726 0.5345,-1.78173 0.8909,-0.17818 1.6035,0.7127 1.4254,3.74164 1.2472,4.6325 1.6036,2.49443 1.2472,0.17817 1.6036,-2.31625 0.8908,-4.27616 2.3163,-6.23607 3.7416,-7.48327 9.6214,-9.08684 7.4833,-8.90867 4.6325,-4.45433 6.236,-4.81068 7.3051,-3.91981 6.94879,-1.78173 8.19597,0 6.23607,-1.42539 c 0,0 4.6325,-2.49442 5.3452,-2.85077 0.71269,-0.35635 4.09798,-3.74164 4.09798,-3.74164 l 4.81067,-3.20712 5.52337,-1.60356 4.98886,-2.85077 4.45433,-4.27616 2.13808,-3.20712 3.91981,-4.09798 5.16703,-2.85078 4.27615,-1.06904 5.70155,-0.17817 7.3051,-0.53452 9.08684,-1.95991 7.30511,-1.9599 7.12693,-4.27616 7.66145,-5.87972 8.0178,-9.62136 4.45433,-5.70154 3.56347,-7.83963 1.78173,-6.94876 0.53452,-8.90866 0.17817,-9.62136 0.89087,-7.3051 3.02894,-7.30511 3.56347,-4.98885 3.02895,-3.38529 2.13808,-2.13808 1.78173,-0.17818 1.78173,1.60356 4.09799,5.52338 2.85077,2.6726 3.02895,2.6726 1.9599,1.42538 c 0,0 0.71269,0.89087 1.24721,0 0.53452,-0.89087 1.06904,-1.78173 1.06904,-1.78173 l 0.35635,-6.77059 -0.89087,-11.22491 0.17818,-3.74164 1.60356,-1.78174 4.6325,-0.35634 6.94876,0.35634 3.91981,0 1.60356,-0.89086 0.7127,-4.09799 0.17817,-5.87972 -0.35635,-2.6726 -1.9599,-0.71269 -2.13808,0 -1.78174,-0.71269 c 0,0 -0.35634,-1.42539 0.17818,-2.31625 0.53452,-0.89087 3.38529,-3.56347 3.38529,-3.56347 l 3.02895,-3.38529 1.9599,-3.56347 0.89087,-2.13808 c 0,0 0.35635,-0.71269 1.06904,-1.42538 0.71269,-0.7127 3.02894,-0.89087 3.02894,-0.89087 l 6.94876,0.53452 3.20712,0 1.78173,-1.06904 0.17818,-5.52337 -0.17818,-3.56347 c 0,0 -0.17817,-1.60355 0.53452,-2.13807 0.7127,-0.53452 1.78174,-1.60356 2.49443,-1.60356 0.71269,0 3.56347,0.35635 3.56347,0.35635 l 3.91981,0.53452 1.42539,-1.06904 0,-3.02895 0.17817,-3.74164 3.20712,-2.85077 4.98885,-3.38529 9.9777,-5.3452 z"
          />
       <path
          d="m 421.55431,63.529216 2.26778,-2.141789 2.39376,-0.881912 3.0237,0 2.64574,0.881912 4.28358,0.881913 5.29147,0.125988 4.0316,-0.251975 3.0237,-1.385863 c 0,0 1.13389,-1.133888 1.63784,-1.259876 0.50395,-0.125987 1.63784,-0.251975 1.63784,-0.251975 l 1.88981,0.50395 1.13389,1.511851 0.12599,3.527651 0.12599,2.519751 -0.88192,1.763825 -2.0158,2.141788 -1.88981,0.755926 c 0,0 -1.25987,0.377962 -1.88981,0.377962 -0.62994,0 -2.0158,0.377963 -2.0158,0.377963 l -1.63784,1.385863 -3.40166,1.889813 -2.26778,0.755925 -2.26778,0.125988 -1.88981,-0.125988 c 0,0 -1.88981,-0.755925 -2.39376,-1.385863 -0.50395,-0.629937 -2.39377,-3.149688 -2.39377,-3.149688 l -2.14178,-1.637838 -3.02371,-1.511851 -2.39376,-2.0158 -1.0079,-2.393764 0,-1.133887 z"
          />
       <path
          d="m 576.14102,123.3733 -2.0158,0 -1.0079,-0.75593 0,-1.76382 0.50395,-1.25988 0.75593,-0.62994 1.38586,0.25198 0.75593,1.38586 0.25197,1.76383 -0.62994,1.0079 z"
          />
       <path
          d="m 580.4246,128.79076 0,-3.14969 0.88191,-2.0158 1.38587,-1.88981 1.38586,-0.88191 2.14179,-0.12599 1.51185,0.25197 2.0158,0.62994 1.25987,0.75593 0.62994,1.13388 -0.37796,1.00791 -1.13389,1.13388 -0.75592,1.38587 -0.25198,1.76382 0.75593,1.38586 1.13388,1.25988 1.13389,0.88191 0.62994,1.13389 -0.12599,2.0158 c 0,0 -0.12599,1.38586 -0.62994,1.51185 -0.50395,0.12599 -1.0079,0.62994 -1.51185,0.62994 -0.50395,0 -3.0237,-0.12599 -3.0237,-0.12599 l -2.89771,-1.38586 -2.39376,-1.76383 -1.63784,-2.26777 -0.25198,-2.26778 0.12599,-1.0079 z"
          />
       <path
          d="m 646.94721,195.15762 1.42539,-2.13808 2.76168,-1.24722 1.78174,-1.06903 2.04899,-0.80178 1.51447,-0.53452 1.60356,-0.26726 1.24722,0.26726 0.89086,0.71269 -0.53452,1.3363 -1.24721,0.71269 -2.13808,1.24721 -1.95991,0.62361 -1.51447,0.97995 -1.95991,1.15813 -1.15812,0.53452 -1.42539,0.17817 -1.24721,-0.26726 -0.53452,-0.71269 0.44543,-0.71269 z"
          />
       <path
          d="m 803.47245,790.07823 -0.17818,-1.69265 0.0891,-1.51447 0.80178,-0.97995 0.97995,0 1.51448,0.35634 1.9599,2.6726 1.51447,2.40534 1.06904,2.04899 0.97996,1.42539 1.06904,0.53452 0.35634,1.06904 -0.97995,0.97995 -1.3363,0.97996 -0.62361,0.71269 -1.06904,0.44543 c 0,0 -1.15812,0.0891 -1.51447,-0.0891 -0.35635,-0.17818 -0.97995,-0.53452 -0.97995,-0.97996 0,-0.44543 0.26726,-1.9599 0.26726,-1.9599 0,0 -0.0891,-0.7127 -0.26726,-1.06904 -0.17817,-0.35635 -0.80178,-1.69265 -0.80178,-1.69265 l -0.97995,-1.42539 -0.97996,-1.06903 -0.53452,-0.44544 -0.35634,-0.71269 z"
          />
       <path
          d="m 807.65952,803.53031 0.71269,-1.51447 0.53452,-0.97995 0.97995,-0.62361 1.95991,0 1.51447,-0.0891 1.15813,0.0891 0.62361,0.0891 0.6236,1.42538 -0.35634,1.06904 -1.42539,0.62361 -0.89087,0.44543 -1.3363,0.35635 -2.04899,0 -1.95991,-0.17817 -0.0891,-0.7127 z"
          />
       <path
          d="m 723.91807,787.13837 -0.26726,-1.78173 0.35635,-2.22717 0.17817,-2.6726 c 0,0 0.62361,-0.71269 0.7127,-1.15813 0.0891,-0.44543 -0.0891,-0.89086 0.17817,-1.33629 0.26726,-0.44544 1.42539,-1.15813 1.42539,-1.15813 0,0 0.71269,0.0891 1.06903,0.0891 0.35635,0 1.42539,0.89086 1.42539,0.89086 l 0.35635,2.04899 c 0,0 0.17817,0.7127 0.17817,1.42539 0,0.71269 0.0891,2.40534 0,2.85077 -0.0891,0.44544 -0.89087,1.78174 -0.89087,1.78174 l -1.15812,1.24721 c 0,0 -0.53452,0.44543 -1.06904,0.53452 -0.53452,0.0891 -1.60356,0 -1.60356,0 l -0.89087,-0.53452 z"
          />
       <path
          d="m 738.41298,808.36756 1.51185,-2.64574 c 0,0 1.13388,-1.25988 1.63783,-1.25988 0.50395,0 1.76383,0 1.76383,0 l 2.0158,1.63784 0.50395,1.25988 2.26778,0.75592 3.65364,0.37796 2.51975,1.0079 3.14968,2.64574 3.52766,2.64574 3.14968,2.64574 3.14969,1.76382 3.65364,0.37797 c 0,0 3.0237,0.12598 3.52765,-0.25198 0.50395,-0.37796 1.38587,-1.13389 2.0158,-1.38586 0.62994,-0.25198 3.14969,-1.0079 3.14969,-1.0079 l 3.27568,-0.37796 3.0237,-0.62994 4.78753,-0.37796 4.28357,-0.62994 2.77173,-0.62994 2.26777,-1.38586 2.26778,-1.25988 2.39376,0 2.64574,1.0079 1.63784,1.0079 1.25987,2.39377 0.25198,3.27567 -0.12599,3.40167 -0.62994,3.40166 -1.25987,4.0316 -1.0079,2.64574 -0.25198,3.65364 0.12599,4.15759 0.25198,2.51975 -0.62994,1.13389 -2.39376,0.62993 -1.51186,0.12599 -2.0158,1.63784 -1.38586,1.88981 -1.25987,1.88981 -0.37797,2.51976 0.62994,1.88981 1.76383,0.75592 0.88191,1.0079 0,1.0079 -0.12599,1.51186 -1.63784,0.88191 -0.50395,1.63784 0,2.14178 c 0,0 0,1.25988 0,2.0158 0,0.75593 -0.50395,1.63784 -0.50395,1.63784 l -0.25197,0.62994 -1.63784,0.12599 -1.76383,-0.12599 c 0,0 -0.62993,-1.76383 -0.50395,-2.26778 0.12599,-0.50395 -0.25197,-1.88981 -0.50395,-2.39376 -0.25197,-0.50395 -0.62993,-1.0079 -1.25987,-1.0079 -0.62994,0 -1.88981,0 -1.88981,0 l -1.38587,0.37796 -2.26777,1.63784 -1.51185,1.13389 -2.26778,2.89771 -2.0158,1.76383 -1.63784,3.90561 -1.0079,2.0158 -2.0158,1.0079 -2.39376,-0.12598 -2.77173,-1.13389 -2.0158,-1.63784 -1.13389,-0.88191 -1.0079,0 c 0,0 -0.88191,0 -1.38586,0 -0.50395,0 -1.38586,0.12598 -1.38586,0.12598 l -0.88192,-0.25197 c 0,0 -1.0079,0 -1.38586,-0.62994 -0.37796,-0.62994 -0.75592,-1.0079 -0.75592,-1.0079 l -1.51185,-0.88191 c 0,0 0.12598,0.12599 -1.13389,-0.75593 -1.25988,-0.88191 -2.77173,-1.76382 -2.77173,-1.76382 0,0 -1.13389,-0.75593 -1.25987,-1.25988 -0.12599,-0.50395 -2.14179,-3.14969 -2.14179,-3.14969 l -2.0158,-3.90561 -1.0079,-3.14969 -0.25198,-3.14969 0.12599,-2.89771 -0.75593,-2.14179 -1.51185,-1.51185 c 0,0 -1.63783,-0.62994 -1.88981,-1.25987 -0.25197,-0.62994 -0.50395,-1.88982 -0.50395,-1.88982 l 0.88191,-1.25987 c 0,0 0.75593,-0.62994 1.51185,-0.88192 0.75593,-0.25197 1.0079,-0.50395 1.0079,-0.50395 0,0 0.25198,-0.37796 0.25198,-1.13388 0,-0.75593 0,-1.76383 0,-1.76383 l -1.0079,-2.26777 c 0,0 -0.25198,-1.25988 -0.37796,-1.76383 -0.12599,-0.50395 -2.39377,-4.66154 -2.39377,-4.66154 l -2.64574,-2.0158 -2.0158,-2.26778 -1.13388,-1.38586 -0.62994,-3.65364 0.12599,-4.40956 0.12598,-5.0395 -0.12598,-2.51975 z"
          />
       <path
          d="m 785.6583,875.39293 -1.25987,-1.13389 -0.25198,-1.76383 0.37797,-1.88981 0.50395,-0.75592 1.51185,0.37796 0.75592,1.38586 0,1.63784 -0.25197,1.25988 -0.62994,1.0079 -0.75593,-0.12599 z"
          />
       <path
          d="m 578.28281,679.35631 2.26778,-2.51975 1.63784,-1.88981 2.26777,-1.38586 2.26778,-0.25198 1.38586,-0.62994 3.27568,0 3.27567,-0.12598 2.14179,0.62994 c 0,0 1.51185,0.37796 2.77173,0.75592 1.25987,0.37796 1.63783,0.50395 2.14178,0.50395 0.50395,0 1.51185,0 1.51185,0 l 1.38587,0.37796 0.62994,0.75593 -0.37797,1.76382 c 0,0 -0.62993,1.51185 -1.13388,1.76383 -0.50396,0.25197 -1.76383,0.88191 -1.76383,0.88191 l -1.38586,1.13389 c 0,0 0.62993,0.62994 -0.37797,0.88191 -1.0079,0.25198 -1.63783,0.37797 -1.63783,0.37797 l -1.38587,-0.75593 0,-0.62994 -1.63783,-0.12598 -1.51186,0 -1.13388,1.13388 -5.79543,-0.25197 -5.29148,0.12599 -2.14179,-0.75593 -1.63783,-0.62994 -0.25198,-0.50395 0.50395,-0.62994 z"
          />
     </g>
    <text class="text title" text-anchor="middle" font-size="26" transform="translate(0, 13)">EUROMOOT</text>
    <!-- <text class="text" text-anchor="middle" font-size="24" transform="translate(0, 42)">2018</text> -->


    <path id="toptext" d="M -60 0 A 60 60 180 0 1 60 0" fill="none"/>
    <path id="bottomtext" d="M -70 0 A 70 70 180 0 0 70 0" fill="none"/>
    <text class="text" font-size="15" transform="rotate(15)">
      <textPath xlink:href="#toptext">
        76th NZ ROVER MOOT
      </textPath>
    </text>
    <text class="text" font-size="15" transform="rotate(-34)">
      <textPath xlink:href="#bottomtext">
        Australian Contingent
      </textPath>
    </text>
  </g>
</svg>
